<svg xmlns="http://www.w3.org/2000/svg" width="933.333" height="933.333" viewBox="0 0 700 700">
    <path d="M0 165.2v165.3l2.1-3.3 2.1-3.2H112l-24.7 37-24.6 37H0v302h700V0H0zm317 56.6 35.3 61.3 1.8-2.8c1.6-2.7 67.6-116.9 69.5-120.6.9-1.5 4.6.4 32.4 16.4 17.3 10 31.9 18.4 32.3 18.8s-15.7 29.2-35.8 64c-20.1 34.9-36.5 63.7-36.5 64.2s33.9.9 79.6.9c46.4 0 79.4.4 79.2.9-.1.5-11.1 17.1-24.3 37l-24 36-53.8.3-53.7.3 32 55.4c17.6 30.5 31.8 55.6 31.7 55.8-.2.1-14.7 8.6-32.2 18.7l-31.9 18.5-1.6-2.7c-.9-1.5-15.7-27.1-32.9-57-17.3-29.9-31.7-54-32.2-53.5-.4.4-15.2 25.9-32.9 56.6-17.7 30.6-32.6 55.7-33.1 55.7-.9 0-61.5-34.5-63.2-36-.4-.4 13.6-25.6 31.2-56.1l32-55.4-86.5-.3c-50-.1-86.4-.6-86.2-1.1s11.1-17.1 24.3-37l24-36 63.9-.1c59.5 0 63.8-.1 63.2-1.7-.4-.9-16.9-29.8-36.7-64.1s-35.8-62.7-35.4-63c.4-.4 14.7-8.8 31.8-18.8 22.7-13.1 31.5-17.8 32.3-17 .6.6 17 28.7 36.4 62.4"/>
</svg>
